<svg xmlns="http://www.w3.org/2000/svg" viewBox="0 0 375 650" width="375" height="650" font-family="-apple-system, system-ui, 'Pretendard', sans-serif">
  <rect width="375" height="650" fill="#F7FEE7"/>
  <text x="20" y="19" font-size="13" font-weight="600" fill="#1F2937">9:41</text>
  <rect x="0" y="28" width="375" height="56" fill="#FFFFFF"/>
  <line x1="0" y1="84" x2="375" y2="84" stroke="#F3D4E3"/>
  <text x="20" y="63" font-size="17" font-weight="600" fill="#1F2937">CSV/XLSX 가져오기</text>

  <g transform="translate(20,108)">
    <text x="0" y="0" font-size="22" font-weight="700" fill="#1F2937">은행 파일 그대로 올리기</text>
    <text x="0" y="22" font-size="12" fill="#6B7280">수십~수백 건이 한 번에 후보 등록</text>

    <!-- upload zone -->
    <g transform="translate(0,42)">
      <rect width="335" height="100" rx="12" fill="#FFFFFF" stroke="#BEF264" stroke-width="1.5" stroke-dasharray="6 4"/>
      <text x="167.5" y="42" text-anchor="middle" font-size="28" fill="#A3E635">📂</text>
      <text x="167.5" y="68" text-anchor="middle" font-size="13" font-weight="600" fill="#1F2937">파일을 여기에 드롭</text>
      <text x="167.5" y="86" text-anchor="middle" font-size="10" fill="#9CA3AF">CSV · XLSX · 비밀번호 걸려있어도 OK</text>
    </g>

    <!-- preview rows -->
    <g transform="translate(0,158)">
      <rect width="335" height="220" rx="12" fill="#FFFFFF" stroke="#F3D4E3"/>
      <rect width="335" height="36" rx="12" fill="#F9FAFB"/>
      <text x="14" y="23" font-size="11" font-weight="700" fill="#374151">국민카드_2026_04.xlsx</text>
      <text x="321" y="23" text-anchor="end" font-size="10" fill="#10B981" font-weight="600">미리보기 47건</text>

      <g font-size="11" transform="translate(14,52)">
        <text y="0" fill="#9CA3AF" font-size="10">04/02</text>
        <text x="60" y="0" fill="#1F2937">CU 편의점 강남</text>
        <text x="307" y="0" text-anchor="end" fill="#1F2937">-3,500</text>
        <line x1="-2" y1="10" x2="307" y2="10" stroke="#F3F4F6"/>

        <text y="26" fill="#9CA3AF" font-size="10">04/02</text>
        <text x="60" y="26" fill="#1F2937">스타벅스 강남점</text>
        <text x="307" y="26" text-anchor="end" fill="#1F2937">-8,300</text>
        <line x1="-2" y1="36" x2="307" y2="36" stroke="#F3F4F6"/>

        <text y="52" fill="#9CA3AF" font-size="10">04/03</text>
        <text x="60" y="52" fill="#1F2937">지하철 환승</text>
        <text x="307" y="52" text-anchor="end" fill="#1F2937">-1,400</text>
        <line x1="-2" y1="62" x2="307" y2="62" stroke="#F3F4F6"/>

        <text y="78" fill="#9CA3AF" font-size="10">04/04</text>
        <text x="60" y="78" fill="#1F2937">올리브영</text>
        <text x="307" y="78" text-anchor="end" fill="#1F2937">-23,400</text>
        <line x1="-2" y1="88" x2="307" y2="88" stroke="#F3F4F6"/>

        <text y="104" fill="#9CA3AF" font-size="10">04/05</text>
        <text x="60" y="104" fill="#1F2937">월급 (입금)</text>
        <text x="307" y="104" text-anchor="end" fill="#10B981" font-weight="700">+3,500,000</text>
        <line x1="-2" y1="114" x2="307" y2="114" stroke="#F3F4F6"/>

        <text y="130" fill="#9CA3AF" font-size="10">04/05</text>
        <text x="60" y="130" fill="#1F2937">넷플릭스</text>
        <text x="307" y="130" text-anchor="end" fill="#1F2937">-17,000</text>
      </g>

      <text x="167.5" y="206" text-anchor="middle" font-size="10" fill="#9CA3AF">… 외 41건</text>
    </g>

    <!-- bottom hint -->
    <g transform="translate(0,392)">
      <rect width="335" height="48" rx="10" fill="#ECFCCB"/>
      <text x="16" y="22" font-size="12" font-weight="600" fill="#1F2937">💡 같은 가맹점은 자동으로 카테고리 학습</text>
      <text x="16" y="40" font-size="11" fill="#374151">두 번째부터는 분류 안 해도 자동 매핑</text>
    </g>
  </g>
</svg>
