<svg xmlns="http://www.w3.org/2000/svg" viewBox="0 0 375 650" width="375" height="650" font-family="-apple-system, system-ui, 'Pretendard', sans-serif">
  <rect width="375" height="650" fill="#FFF7FA"/>
  <text x="20" y="19" font-size="13" font-weight="600" fill="#1F2937">9:41</text>
  <rect x="0" y="28" width="375" height="56" fill="#FFFFFF"/>
  <line x1="0" y1="84" x2="375" y2="84" stroke="#F3D4E3"/>
  <text x="20" y="63" font-size="17" font-weight="600" fill="#1F2937">고정 거래</text>
  <g transform="translate(310,46)"><rect width="36" height="32" rx="8" fill="#F472B6"/><text x="18" y="22" text-anchor="middle" font-size="14" fill="#FFFFFF" font-weight="700">+</text></g>

  <g transform="translate(20,108)">
    <text x="0" y="0" font-size="22" font-weight="700" fill="#1F2937">매달 똑같이 빠지는 돈</text>
    <text x="0" y="22" font-size="12" fill="#6B7280">한 번 등록하면 자동으로 매달 입력</text>

    <!-- summary -->
    <g transform="translate(0,42)">
      <rect width="335" height="58" rx="12" fill="#FFFFFF" stroke="#F3D4E3"/>
      <text x="14" y="22" font-size="11" fill="#9CA3AF">이번 달 고정 지출 합계</text>
      <text x="14" y="46" font-size="20" font-weight="700" fill="#1F2937">706,900원</text>
      <text x="321" y="40" text-anchor="end" font-size="11" font-weight="600" fill="#3730A3">8건 활성</text>
    </g>

    <!-- recurring items -->
    <g transform="translate(0,116)">
      <!-- 월급 (income) -->
      <rect width="335" height="62" rx="10" fill="#F0FDF4" stroke="#86EFAC"/>
      <g transform="translate(14,14)">
        <circle cx="14" cy="14" r="14" fill="#10B981"/>
        <text x="14" y="19" text-anchor="middle" font-size="13" fill="#FFFFFF" font-weight="700">💰</text>
      </g>
      <text x="46" y="26" font-size="13" font-weight="700" fill="#1F2937">월급</text>
      <text x="46" y="44" font-size="10" fill="#6B7280">매월 25일 · 자동입력</text>
      <text x="321" y="32" text-anchor="end" font-size="14" font-weight="700" fill="#10B981">+3,500,000</text>
      <text x="321" y="46" text-anchor="end" font-size="9" fill="#10B981">D-15 알림</text>

      <!-- 월세 -->
      <g transform="translate(0,72)">
        <rect width="335" height="62" rx="10" fill="#FFFFFF" stroke="#F3D4E3"/>
        <g transform="translate(14,14)">
          <circle cx="14" cy="14" r="14" fill="#FCE7F3"/>
          <text x="14" y="19" text-anchor="middle" font-size="13" fill="#BE185D" font-weight="700">🏠</text>
        </g>
        <text x="46" y="26" font-size="13" font-weight="700" fill="#1F2937">월세</text>
        <text x="46" y="44" font-size="10" fill="#6B7280">매월 1일 · 다음 06/01</text>
        <text x="321" y="34" text-anchor="end" font-size="14" font-weight="700" fill="#BE185D">-500,000</text>
      </g>

      <!-- 넷플릭스 -->
      <g transform="translate(0,144)">
        <rect width="335" height="62" rx="10" fill="#FFFFFF" stroke="#F3D4E3"/>
        <g transform="translate(14,14)">
          <circle cx="14" cy="14" r="14" fill="#FCE7F3"/>
          <text x="14" y="19" text-anchor="middle" font-size="13" font-weight="700">📺</text>
        </g>
        <text x="46" y="26" font-size="13" font-weight="700" fill="#1F2937">넷플릭스</text>
        <text x="46" y="44" font-size="10" fill="#6B7280">매월 5일 · 다음 06/05</text>
        <text x="321" y="34" text-anchor="end" font-size="14" font-weight="700" fill="#BE185D">-17,000</text>
      </g>

      <!-- 통신비 -->
      <g transform="translate(0,216)">
        <rect width="335" height="62" rx="10" fill="#FFFFFF" stroke="#F3D4E3"/>
        <g transform="translate(14,14)">
          <circle cx="14" cy="14" r="14" fill="#FCE7F3"/>
          <text x="14" y="19" text-anchor="middle" font-size="13" font-weight="700">📱</text>
        </g>
        <text x="46" y="26" font-size="13" font-weight="700" fill="#1F2937">SKT 통신요금</text>
        <text x="46" y="44" font-size="10" fill="#6B7280">매월 17일 · 다음 06/17</text>
        <text x="321" y="34" text-anchor="end" font-size="14" font-weight="700" fill="#BE185D">-52,000</text>
      </g>

      <!-- 헬스장 -->
      <g transform="translate(0,288)">
        <rect width="335" height="62" rx="10" fill="#FFFFFF" stroke="#F3D4E3"/>
        <g transform="translate(14,14)">
          <circle cx="14" cy="14" r="14" fill="#FCE7F3"/>
          <text x="14" y="19" text-anchor="middle" font-size="13" font-weight="700">💪</text>
        </g>
        <text x="46" y="26" font-size="13" font-weight="700" fill="#1F2937">헬스장</text>
        <text x="46" y="44" font-size="10" fill="#6B7280">매월 15일 · 다음 06/15</text>
        <text x="321" y="34" text-anchor="end" font-size="14" font-weight="700" fill="#BE185D">-55,000</text>
      </g>
    </g>
  </g>
</svg>
